<svg xmlns="http://www.w3.org/2000/svg" viewBox="0 0 120 132" role="img" aria-labelledby="title desc">
  <title id="title">Landon Motor Works shield</title>
  <desc id="desc">Steel shield logo with LMW initials</desc>
  <defs>
    <linearGradient id="steel" x1="0" y1="0" x2="1" y2="1">
      <stop offset="0" stop-color="#f7fbff"/>
      <stop offset=".28" stop-color="#6f8295"/>
      <stop offset=".54" stop-color="#eef4f8"/>
      <stop offset=".78" stop-color="#435264"/>
      <stop offset="1" stop-color="#c8d2da"/>
    </linearGradient>
    <linearGradient id="blue" x1="0" y1="0" x2="0" y2="1">
      <stop offset="0" stop-color="#21a8ff"/>
      <stop offset="1" stop-color="#0756d8"/>
    </linearGradient>
    <filter id="shadow" x="-40%" y="-40%" width="180%" height="180%"><feDropShadow dx="0" dy="8" stdDeviation="7" flood-color="#000" flood-opacity=".55"/></filter>
  </defs>
  <path d="M60 4 110 21v42c0 31-18 52-50 65C28 115 10 94 10 63V21L60 4Z" fill="#07111d" stroke="url(#steel)" stroke-width="6" filter="url(#shadow)"/>
  <path d="M60 13 101 27v35c0 25-13 43-41 56-28-13-41-31-41-56V27L60 13Z" fill="none" stroke="#1d3347" stroke-width="2"/>
  <path d="M28 41h64v42H28z" rx="7" fill="#0b1725" stroke="url(#blue)" stroke-width="2"/>
  <path d="M34 48h52" stroke="#9fb0bf" stroke-width="2" opacity=".5"/>
  <text x="60" y="69" text-anchor="middle" fill="url(#steel)" font-family="Arial, sans-serif" font-size="28" font-weight="900" letter-spacing="2">LMW</text>
  <path d="M35 91h50" stroke="#20a4ff" stroke-width="3"/>
  <circle cx="60" cy="101" r="4" fill="#ff9f1a"/>
</svg>
